<mxfile host="app.diagrams.net" modified="2023-10-12T08:47:25.431Z" agent="Mozilla/5.0 (Windows NT 10.0; Win64; x64) AppleWebKit/537.36 (KHTML, like Gecko) Chrome/118.0.0.0 Safari/537.36" etag="wFldj_iM-cDiiEkcJcZY" version="22.0.4" type="device">
  <diagram name="Pagina-1" id="Zriw1IDFEsVjMwERB2wB">
    <mxGraphModel dx="794" dy="434" grid="1" gridSize="10" guides="1" tooltips="1" connect="1" arrows="1" fold="1" page="1" pageScale="1" pageWidth="827" pageHeight="1169" math="0" shadow="0">
      <root>
        <mxCell id="0" />
        <mxCell id="1" parent="0" />
        <mxCell id="PtWtwhCOfNHnPangeqhb-16" style="edgeStyle=orthogonalEdgeStyle;rounded=0;orthogonalLoop=1;jettySize=auto;html=1;" edge="1" parent="1" source="PtWtwhCOfNHnPangeqhb-1" target="PtWtwhCOfNHnPangeqhb-17">
          <mxGeometry relative="1" as="geometry">
            <mxPoint x="370" y="270" as="targetPoint" />
          </mxGeometry>
        </mxCell>
        <mxCell id="PtWtwhCOfNHnPangeqhb-1" value="visitor" style="shape=umlActor;verticalLabelPosition=bottom;verticalAlign=top;html=1;outlineConnect=0;" vertex="1" parent="1">
          <mxGeometry x="220" y="320" width="30" height="60" as="geometry" />
        </mxCell>
        <mxCell id="PtWtwhCOfNHnPangeqhb-2" value="quiz/quesrtions" style="swimlane;whiteSpace=wrap;html=1;" vertex="1" parent="1">
          <mxGeometry x="310" y="20" width="290" height="400" as="geometry" />
        </mxCell>
        <mxCell id="PtWtwhCOfNHnPangeqhb-22" style="edgeStyle=orthogonalEdgeStyle;rounded=0;orthogonalLoop=1;jettySize=auto;html=1;" edge="1" parent="PtWtwhCOfNHnPangeqhb-2" source="PtWtwhCOfNHnPangeqhb-17" target="PtWtwhCOfNHnPangeqhb-20">
          <mxGeometry relative="1" as="geometry" />
        </mxCell>
        <mxCell id="PtWtwhCOfNHnPangeqhb-17" value="login" style="ellipse;whiteSpace=wrap;html=1;" vertex="1" parent="PtWtwhCOfNHnPangeqhb-2">
          <mxGeometry x="10" y="320" width="110" height="60" as="geometry" />
        </mxCell>
        <mxCell id="PtWtwhCOfNHnPangeqhb-20" value="log out" style="ellipse;whiteSpace=wrap;html=1;" vertex="1" parent="PtWtwhCOfNHnPangeqhb-2">
          <mxGeometry x="24" y="260" width="80" height="30" as="geometry" />
        </mxCell>
        <mxCell id="PtWtwhCOfNHnPangeqhb-27" value="create a question" style="ellipse;whiteSpace=wrap;html=1;" vertex="1" parent="PtWtwhCOfNHnPangeqhb-2">
          <mxGeometry x="25" y="182.5" width="60" height="35" as="geometry" />
        </mxCell>
        <mxCell id="PtWtwhCOfNHnPangeqhb-29" value="create quiz" style="ellipse;whiteSpace=wrap;html=1;" vertex="1" parent="PtWtwhCOfNHnPangeqhb-2">
          <mxGeometry x="24" y="230" width="80" height="30" as="geometry" />
        </mxCell>
        <mxCell id="PtWtwhCOfNHnPangeqhb-31" value="make quizz" style="ellipse;whiteSpace=wrap;html=1;" vertex="1" parent="PtWtwhCOfNHnPangeqhb-2">
          <mxGeometry x="24" y="140" width="61" height="30" as="geometry" />
        </mxCell>
        <mxCell id="PtWtwhCOfNHnPangeqhb-33" value="review quizz" style="ellipse;whiteSpace=wrap;html=1;" vertex="1" parent="PtWtwhCOfNHnPangeqhb-2">
          <mxGeometry x="120" y="137.5" width="60" height="35" as="geometry" />
        </mxCell>
        <mxCell id="PtWtwhCOfNHnPangeqhb-32" style="edgeStyle=orthogonalEdgeStyle;rounded=0;orthogonalLoop=1;jettySize=auto;html=1;" edge="1" parent="PtWtwhCOfNHnPangeqhb-2" source="PtWtwhCOfNHnPangeqhb-31" target="PtWtwhCOfNHnPangeqhb-33">
          <mxGeometry relative="1" as="geometry">
            <mxPoint x="130" y="155" as="targetPoint" />
          </mxGeometry>
        </mxCell>
        <mxCell id="PtWtwhCOfNHnPangeqhb-35" value="change state of quiz" style="ellipse;whiteSpace=wrap;html=1;" vertex="1" parent="PtWtwhCOfNHnPangeqhb-2">
          <mxGeometry x="20" y="47.5" width="120" height="45" as="geometry" />
        </mxCell>
        <mxCell id="PtWtwhCOfNHnPangeqhb-25" style="edgeStyle=orthogonalEdgeStyle;rounded=0;orthogonalLoop=1;jettySize=auto;html=1;entryX=0;entryY=0.5;entryDx=0;entryDy=0;" edge="1" parent="1" source="PtWtwhCOfNHnPangeqhb-3" target="PtWtwhCOfNHnPangeqhb-20">
          <mxGeometry relative="1" as="geometry" />
        </mxCell>
        <mxCell id="PtWtwhCOfNHnPangeqhb-26" style="edgeStyle=orthogonalEdgeStyle;rounded=0;orthogonalLoop=1;jettySize=auto;html=1;" edge="1" parent="1" source="PtWtwhCOfNHnPangeqhb-3" target="PtWtwhCOfNHnPangeqhb-27">
          <mxGeometry relative="1" as="geometry">
            <mxPoint x="340" y="190" as="targetPoint" />
          </mxGeometry>
        </mxCell>
        <mxCell id="PtWtwhCOfNHnPangeqhb-28" style="edgeStyle=orthogonalEdgeStyle;rounded=0;orthogonalLoop=1;jettySize=auto;html=1;" edge="1" parent="1" source="PtWtwhCOfNHnPangeqhb-3" target="PtWtwhCOfNHnPangeqhb-29">
          <mxGeometry relative="1" as="geometry">
            <mxPoint x="370" y="220" as="targetPoint" />
          </mxGeometry>
        </mxCell>
        <mxCell id="PtWtwhCOfNHnPangeqhb-30" style="edgeStyle=orthogonalEdgeStyle;rounded=0;orthogonalLoop=1;jettySize=auto;html=1;" edge="1" parent="1" source="PtWtwhCOfNHnPangeqhb-3" target="PtWtwhCOfNHnPangeqhb-31">
          <mxGeometry relative="1" as="geometry">
            <mxPoint x="340" y="200" as="targetPoint" />
          </mxGeometry>
        </mxCell>
        <mxCell id="PtWtwhCOfNHnPangeqhb-3" value="authenticated&lt;br&gt;" style="shape=umlActor;verticalLabelPosition=bottom;verticalAlign=top;html=1;outlineConnect=0;" vertex="1" parent="1">
          <mxGeometry x="220" y="190" width="30" height="60" as="geometry" />
        </mxCell>
        <mxCell id="PtWtwhCOfNHnPangeqhb-34" style="edgeStyle=orthogonalEdgeStyle;rounded=0;orthogonalLoop=1;jettySize=auto;html=1;" edge="1" parent="1" source="PtWtwhCOfNHnPangeqhb-4" target="PtWtwhCOfNHnPangeqhb-35">
          <mxGeometry relative="1" as="geometry">
            <mxPoint x="360" y="90" as="targetPoint" />
          </mxGeometry>
        </mxCell>
        <mxCell id="PtWtwhCOfNHnPangeqhb-4" value="admin&lt;br&gt;" style="shape=umlActor;verticalLabelPosition=bottom;verticalAlign=top;html=1;outlineConnect=0;" vertex="1" parent="1">
          <mxGeometry x="225" y="60" width="30" height="60" as="geometry" />
        </mxCell>
      </root>
    </mxGraphModel>
  </diagram>
</mxfile>
